# xmcd CD database file
#
# Track frame offsets:
#	150
#	21382
#	37074
#	52582
#	70128
#	85651
#	107676
#	131625
#	143133
#	162593
#	186421
#	199476
#	224526
#
# Disc length: 3191 seconds
#
# Revision: 0
# Processed by: cddbd v1.5.2PL0 Copyright (c) Steve Scherf et al.
# Submitted via: CDex 1.51
#
DISCID=c40c750d
DTITLE=Various Artist - Vintage Collection
DYEAR=2006
DGENRE=Jazz
TTITLE0=As Long As I Live
TTITLE1=Swinging Shepherd Blues
TTITLE2=Easy Living
TTITLE3=Pennies from Heaven
TTITLE4=What a Little Moonlight Can Do
TTITLE5=On the Sunny Side of the Street
TTITLE6=Moondance
TTITLE7=If You Ever Should Leave
TTITLE8=Until I Was Loved
TTITLE9=It Might As Well Be Spring
TTITLE10=Sailboat in the Moonlight
TTITLE11=Vu Ja De
TTITLE12=That's All
EXTD=YEAR: 2006
EXTT0=
EXTT1=
EXTT2=
EXTT3=
EXTT4=
EXTT5=
EXTT6=
EXTT7=
EXTT8=
EXTT9=
EXTT10=
EXTT11=
EXTT12=
PLAYORDER=
